<mxfile host="app.diagrams.net" modified="2024-06-17T20:10:55.937Z" agent="Mozilla/5.0 (Windows NT 10.0; Win64; x64) AppleWebKit/537.36 (KHTML, like Gecko) Chrome/123.0.0.0 Safari/537.36 OPR/109.0.0.0" etag="0qAt4gieO9Px6W0ZPowm" version="24.5.5" type="github">
  <diagram name="PÃ¡gina-1" id="5c7cXVIxc6Zba3c8BK8-">
    <mxGraphModel dx="2220" dy="766" grid="1" gridSize="10" guides="1" tooltips="1" connect="1" arrows="1" fold="1" page="1" pageScale="1" pageWidth="827" pageHeight="1169" math="0" shadow="0">
      <root>
        <mxCell id="0" />
        <mxCell id="1" parent="0" />
        <mxCell id="kuCT0JWgRBGRcobsYB0P-81" style="edgeStyle=orthogonalEdgeStyle;rounded=0;orthogonalLoop=1;jettySize=auto;html=1;" parent="1" source="kuCT0JWgRBGRcobsYB0P-1" target="kuCT0JWgRBGRcobsYB0P-21" edge="1">
          <mxGeometry relative="1" as="geometry">
            <Array as="points">
              <mxPoint x="640" y="190" />
            </Array>
          </mxGeometry>
        </mxCell>
        <mxCell id="kuCT0JWgRBGRcobsYB0P-1" value="Usuario" style="swimlane;fontStyle=0;childLayout=stackLayout;horizontal=1;startSize=30;horizontalStack=0;resizeParent=1;resizeParentMax=0;resizeLast=0;collapsible=1;marginBottom=0;whiteSpace=wrap;html=1;" parent="1" vertex="1">
          <mxGeometry x="349" y="70" width="151" height="240" as="geometry" />
        </mxCell>
        <mxCell id="kuCT0JWgRBGRcobsYB0P-2" value="&lt;div&gt;&lt;font face=&quot;-apple-system, Roboto, SegoeUI, Segoe UI, Helvetica Neue, Helvetica, Microsoft YaHei, Meiryo UI, Meiryo, Arial Unicode MS, sans-serif&quot; color=&quot;#111111&quot;&gt;&lt;span style=&quot;font-size: 14px;&quot;&gt;# idUser: Int&lt;/span&gt;&lt;/font&gt;&lt;/div&gt;" style="text;strokeColor=none;fillColor=none;align=left;verticalAlign=middle;spacingLeft=4;spacingRight=4;overflow=hidden;points=[[0,0.5],[1,0.5]];portConstraint=eastwest;rotatable=0;whiteSpace=wrap;html=1;" parent="kuCT0JWgRBGRcobsYB0P-1" vertex="1">
          <mxGeometry y="30" width="151" height="30" as="geometry" />
        </mxCell>
        <mxCell id="kuCT0JWgRBGRcobsYB0P-3" value="# nomeUser: String" style="text;strokeColor=none;fillColor=none;align=left;verticalAlign=middle;spacingLeft=4;spacingRight=4;overflow=hidden;points=[[0,0.5],[1,0.5]];portConstraint=eastwest;rotatable=0;whiteSpace=wrap;html=1;" parent="kuCT0JWgRBGRcobsYB0P-1" vertex="1">
          <mxGeometry y="60" width="151" height="30" as="geometry" />
        </mxCell>
        <mxCell id="kuCT0JWgRBGRcobsYB0P-4" value="# emailUser: String" style="text;strokeColor=none;fillColor=none;align=left;verticalAlign=middle;spacingLeft=4;spacingRight=4;overflow=hidden;points=[[0,0.5],[1,0.5]];portConstraint=eastwest;rotatable=0;whiteSpace=wrap;html=1;" parent="kuCT0JWgRBGRcobsYB0P-1" vertex="1">
          <mxGeometry y="90" width="151" height="30" as="geometry" />
        </mxCell>
        <mxCell id="kuCT0JWgRBGRcobsYB0P-6" value="# telefoneUser: int" style="text;strokeColor=none;fillColor=none;align=left;verticalAlign=middle;spacingLeft=4;spacingRight=4;overflow=hidden;points=[[0,0.5],[1,0.5]];portConstraint=eastwest;rotatable=0;whiteSpace=wrap;html=1;" parent="kuCT0JWgRBGRcobsYB0P-1" vertex="1">
          <mxGeometry y="120" width="151" height="30" as="geometry" />
        </mxCell>
        <mxCell id="kuCT0JWgRBGRcobsYB0P-5" value="# dataNascUser: date" style="text;strokeColor=none;fillColor=none;align=left;verticalAlign=middle;spacingLeft=4;spacingRight=4;overflow=hidden;points=[[0,0.5],[1,0.5]];portConstraint=eastwest;rotatable=0;whiteSpace=wrap;html=1;" parent="kuCT0JWgRBGRcobsYB0P-1" vertex="1">
          <mxGeometry y="150" width="151" height="30" as="geometry" />
        </mxCell>
        <mxCell id="kuCT0JWgRBGRcobsYB0P-7" value="# cepUser: int" style="text;strokeColor=none;fillColor=none;align=left;verticalAlign=middle;spacingLeft=4;spacingRight=4;overflow=hidden;points=[[0,0.5],[1,0.5]];portConstraint=eastwest;rotatable=0;whiteSpace=wrap;html=1;" parent="kuCT0JWgRBGRcobsYB0P-1" vertex="1">
          <mxGeometry y="180" width="151" height="30" as="geometry" />
        </mxCell>
        <mxCell id="kuCT0JWgRBGRcobsYB0P-8" value="# sexoUser: String" style="text;strokeColor=none;fillColor=none;align=left;verticalAlign=middle;spacingLeft=4;spacingRight=4;overflow=hidden;points=[[0,0.5],[1,0.5]];portConstraint=eastwest;rotatable=0;whiteSpace=wrap;html=1;" parent="kuCT0JWgRBGRcobsYB0P-1" vertex="1">
          <mxGeometry y="210" width="151" height="30" as="geometry" />
        </mxCell>
        <mxCell id="kuCT0JWgRBGRcobsYB0P-9" value="Paciente" style="swimlane;fontStyle=0;childLayout=stackLayout;horizontal=1;startSize=30;horizontalStack=0;resizeParent=1;resizeParentMax=0;resizeLast=0;collapsible=1;marginBottom=0;whiteSpace=wrap;html=1;" parent="1" vertex="1">
          <mxGeometry x="130" y="310" width="150" height="90" as="geometry" />
        </mxCell>
        <mxCell id="kuCT0JWgRBGRcobsYB0P-10" value="# cpfPac: int" style="text;strokeColor=none;fillColor=none;align=left;verticalAlign=middle;spacingLeft=4;spacingRight=4;overflow=hidden;points=[[0,0.5],[1,0.5]];portConstraint=eastwest;rotatable=0;whiteSpace=wrap;html=1;" parent="kuCT0JWgRBGRcobsYB0P-9" vertex="1">
          <mxGeometry y="30" width="150" height="30" as="geometry" />
        </mxCell>
        <mxCell id="kuCT0JWgRBGRcobsYB0P-11" value="# histMedPac: String" style="text;strokeColor=none;fillColor=none;align=left;verticalAlign=middle;spacingLeft=4;spacingRight=4;overflow=hidden;points=[[0,0.5],[1,0.5]];portConstraint=eastwest;rotatable=0;whiteSpace=wrap;html=1;" parent="kuCT0JWgRBGRcobsYB0P-9" vertex="1">
          <mxGeometry y="60" width="150" height="30" as="geometry" />
        </mxCell>
        <mxCell id="kuCT0JWgRBGRcobsYB0P-13" value="" style="rounded=0;whiteSpace=wrap;html=1;" parent="1" vertex="1">
          <mxGeometry x="130" y="400" width="150" height="220" as="geometry" />
        </mxCell>
        <mxCell id="kuCT0JWgRBGRcobsYB0P-14" value="- registrarUser():&lt;span style=&quot;text-align: center;&quot;&gt;&amp;nbsp;void&lt;/span&gt;" style="text;strokeColor=none;fillColor=none;align=left;verticalAlign=middle;spacingLeft=4;spacingRight=4;overflow=hidden;points=[[0,0.5],[1,0.5]];portConstraint=eastwest;rotatable=0;whiteSpace=wrap;html=1;" parent="1" vertex="1">
          <mxGeometry x="130" y="400" width="140" height="30" as="geometry" />
        </mxCell>
        <mxCell id="kuCT0JWgRBGRcobsYB0P-15" value="- verificarInfos():&lt;span style=&quot;text-align: center;&quot;&gt;&amp;nbsp;void&lt;/span&gt;" style="text;strokeColor=none;fillColor=none;align=left;verticalAlign=middle;spacingLeft=4;spacingRight=4;overflow=hidden;points=[[0,0.5],[1,0.5]];portConstraint=eastwest;rotatable=0;whiteSpace=wrap;html=1;" parent="1" vertex="1">
          <mxGeometry x="130" y="430" width="140" height="30" as="geometry" />
        </mxCell>
        <mxCell id="kuCT0JWgRBGRcobsYB0P-16" value="- verificarCpf():&lt;span style=&quot;text-align: center;&quot;&gt;&amp;nbsp;void&lt;/span&gt;" style="text;strokeColor=none;fillColor=none;align=left;verticalAlign=middle;spacingLeft=4;spacingRight=4;overflow=hidden;points=[[0,0.5],[1,0.5]];portConstraint=eastwest;rotatable=0;whiteSpace=wrap;html=1;" parent="1" vertex="1">
          <mxGeometry x="130" y="460" width="140" height="30" as="geometry" />
        </mxCell>
        <mxCell id="kuCT0JWgRBGRcobsYB0P-17" value="- marcarConsulta():&lt;span style=&quot;text-align: center;&quot;&gt;&amp;nbsp;void&lt;/span&gt;" style="text;strokeColor=none;fillColor=none;align=left;verticalAlign=middle;spacingLeft=4;spacingRight=4;overflow=hidden;points=[[0,0.5],[1,0.5]];portConstraint=eastwest;rotatable=0;whiteSpace=wrap;html=1;" parent="1" vertex="1">
          <mxGeometry x="130" y="490" width="140" height="30" as="geometry" />
        </mxCell>
        <mxCell id="kuCT0JWgRBGRcobsYB0P-18" value="- realizarConsulta():&lt;span style=&quot;text-align: center;&quot;&gt;&amp;nbsp;void&lt;/span&gt;" style="text;strokeColor=none;fillColor=none;align=left;verticalAlign=middle;spacingLeft=4;spacingRight=4;overflow=hidden;points=[[0,0.5],[1,0.5]];portConstraint=eastwest;rotatable=0;whiteSpace=wrap;html=1;" parent="1" vertex="1">
          <mxGeometry x="130" y="520" width="150" height="30" as="geometry" />
        </mxCell>
        <mxCell id="kuCT0JWgRBGRcobsYB0P-19" value="- cancelarConsulta():&lt;span style=&quot;text-align: center;&quot;&gt;&amp;nbsp;void&lt;/span&gt;" style="text;strokeColor=none;fillColor=none;align=left;verticalAlign=middle;spacingLeft=4;spacingRight=4;overflow=hidden;points=[[0,0.5],[1,0.5]];portConstraint=eastwest;rotatable=0;whiteSpace=wrap;html=1;" parent="1" vertex="1">
          <mxGeometry x="130" y="550" width="150" height="30" as="geometry" />
        </mxCell>
        <mxCell id="kuCT0JWgRBGRcobsYB0P-20" value="&lt;font style=&quot;vertical-align: inherit;&quot;&gt;&lt;font style=&quot;vertical-align: inherit;&quot;&gt;- avaliar psicologo():&lt;/font&gt;&lt;/font&gt;&lt;span style=&quot;text-align: center;&quot;&gt;&amp;nbsp;void&lt;/span&gt;" style="text;strokeColor=none;fillColor=none;align=left;verticalAlign=middle;spacingLeft=4;spacingRight=4;overflow=hidden;points=[[0,0.5],[1,0.5]];portConstraint=eastwest;rotatable=0;whiteSpace=wrap;html=1;" parent="1" vertex="1">
          <mxGeometry x="130" y="580" width="150" height="30" as="geometry" />
        </mxCell>
        <mxCell id="kuCT0JWgRBGRcobsYB0P-21" value="Psicologo" style="swimlane;fontStyle=0;childLayout=stackLayout;horizontal=1;startSize=30;horizontalStack=0;resizeParent=1;resizeParentMax=0;resizeLast=0;collapsible=1;marginBottom=0;whiteSpace=wrap;html=1;" parent="1" vertex="1">
          <mxGeometry x="570" y="310" width="160" height="150" as="geometry" />
        </mxCell>
        <mxCell id="kuCT0JWgRBGRcobsYB0P-22" value="# crp: int" style="text;strokeColor=none;fillColor=none;align=left;verticalAlign=middle;spacingLeft=4;spacingRight=4;overflow=hidden;points=[[0,0.5],[1,0.5]];portConstraint=eastwest;rotatable=0;whiteSpace=wrap;html=1;" parent="kuCT0JWgRBGRcobsYB0P-21" vertex="1">
          <mxGeometry y="30" width="160" height="30" as="geometry" />
        </mxCell>
        <mxCell id="kuCT0JWgRBGRcobsYB0P-23" value="# formacaoPsic: String" style="text;strokeColor=none;fillColor=none;align=left;verticalAlign=middle;spacingLeft=4;spacingRight=4;overflow=hidden;points=[[0,0.5],[1,0.5]];portConstraint=eastwest;rotatable=0;whiteSpace=wrap;html=1;" parent="kuCT0JWgRBGRcobsYB0P-21" vertex="1">
          <mxGeometry y="60" width="160" height="30" as="geometry" />
        </mxCell>
        <mxCell id="kuCT0JWgRBGRcobsYB0P-24" value="# regProPsic: String" style="text;strokeColor=none;fillColor=none;align=left;verticalAlign=middle;spacingLeft=4;spacingRight=4;overflow=hidden;points=[[0,0.5],[1,0.5]];portConstraint=eastwest;rotatable=0;whiteSpace=wrap;html=1;" parent="kuCT0JWgRBGRcobsYB0P-21" vertex="1">
          <mxGeometry y="90" width="160" height="30" as="geometry" />
        </mxCell>
        <mxCell id="kuCT0JWgRBGRcobsYB0P-25" value="# especPsic: String" style="text;strokeColor=none;fillColor=none;align=left;verticalAlign=middle;spacingLeft=4;spacingRight=4;overflow=hidden;points=[[0,0.5],[1,0.5]];portConstraint=eastwest;rotatable=0;whiteSpace=wrap;html=1;" parent="kuCT0JWgRBGRcobsYB0P-21" vertex="1">
          <mxGeometry y="120" width="160" height="30" as="geometry" />
        </mxCell>
        <mxCell id="kuCT0JWgRBGRcobsYB0P-26" value="" style="rounded=0;whiteSpace=wrap;html=1;" parent="1" vertex="1">
          <mxGeometry x="570" y="460" width="160" height="180" as="geometry" />
        </mxCell>
        <mxCell id="kuCT0JWgRBGRcobsYB0P-27" value="- registrarUser():&lt;span style=&quot;text-align: center;&quot;&gt;&amp;nbsp;void&lt;/span&gt;" style="text;strokeColor=none;fillColor=none;align=left;verticalAlign=middle;spacingLeft=4;spacingRight=4;overflow=hidden;points=[[0,0.5],[1,0.5]];portConstraint=eastwest;rotatable=0;whiteSpace=wrap;html=1;" parent="1" vertex="1">
          <mxGeometry x="570" y="460" width="140" height="30" as="geometry" />
        </mxCell>
        <mxCell id="kuCT0JWgRBGRcobsYB0P-28" value="- verificarInfos():&lt;span style=&quot;text-align: center;&quot;&gt;&amp;nbsp;void&lt;/span&gt;" style="text;strokeColor=none;fillColor=none;align=left;verticalAlign=middle;spacingLeft=4;spacingRight=4;overflow=hidden;points=[[0,0.5],[1,0.5]];portConstraint=eastwest;rotatable=0;whiteSpace=wrap;html=1;" parent="1" vertex="1">
          <mxGeometry x="570" y="480" width="140" height="30" as="geometry" />
        </mxCell>
        <mxCell id="kuCT0JWgRBGRcobsYB0P-30" value="- marcarConsulta():&lt;span style=&quot;text-align: center;&quot;&gt;&amp;nbsp;void&lt;/span&gt;" style="text;strokeColor=none;fillColor=none;align=left;verticalAlign=middle;spacingLeft=4;spacingRight=4;overflow=hidden;points=[[0,0.5],[1,0.5]];portConstraint=eastwest;rotatable=0;whiteSpace=wrap;html=1;" parent="1" vertex="1">
          <mxGeometry x="570" y="505" width="140" height="30" as="geometry" />
        </mxCell>
        <mxCell id="kuCT0JWgRBGRcobsYB0P-31" value="- realizarConsulta():&lt;span style=&quot;text-align: center;&quot;&gt;&amp;nbsp;void&lt;/span&gt;" style="text;strokeColor=none;fillColor=none;align=left;verticalAlign=middle;spacingLeft=4;spacingRight=4;overflow=hidden;points=[[0,0.5],[1,0.5]];portConstraint=eastwest;rotatable=0;whiteSpace=wrap;html=1;" parent="1" vertex="1">
          <mxGeometry x="570" y="530" width="150" height="30" as="geometry" />
        </mxCell>
        <mxCell id="kuCT0JWgRBGRcobsYB0P-32" value="- cancelarConsulta():&lt;span style=&quot;text-align: center;&quot;&gt;&amp;nbsp;void&lt;/span&gt;" style="text;strokeColor=none;fillColor=none;align=left;verticalAlign=middle;spacingLeft=4;spacingRight=4;overflow=hidden;points=[[0,0.5],[1,0.5]];portConstraint=eastwest;rotatable=0;whiteSpace=wrap;html=1;" parent="1" vertex="1">
          <mxGeometry x="570" y="560" width="150" height="30" as="geometry" />
        </mxCell>
        <mxCell id="kuCT0JWgRBGRcobsYB0P-34" value="- escreverRelatorio():&lt;span style=&quot;text-align: center;&quot;&gt;&amp;nbsp;void&lt;/span&gt;" style="text;strokeColor=none;fillColor=none;align=left;verticalAlign=middle;spacingLeft=4;spacingRight=4;overflow=hidden;points=[[0,0.5],[1,0.5]];portConstraint=eastwest;rotatable=0;whiteSpace=wrap;html=1;" parent="1" vertex="1">
          <mxGeometry x="570" y="584.5" width="160" height="30" as="geometry" />
        </mxCell>
        <mxCell id="kuCT0JWgRBGRcobsYB0P-35" value="- realizarDiagnostico():&lt;span style=&quot;text-align: center;&quot;&gt;&amp;nbsp;void&lt;/span&gt;" style="text;strokeColor=none;fillColor=none;align=left;verticalAlign=middle;spacingLeft=4;spacingRight=4;overflow=hidden;points=[[0,0.5],[1,0.5]];portConstraint=eastwest;rotatable=0;whiteSpace=wrap;html=1;" parent="1" vertex="1">
          <mxGeometry x="570" y="610" width="160" height="30" as="geometry" />
        </mxCell>
        <mxCell id="kuCT0JWgRBGRcobsYB0P-79" style="edgeStyle=orthogonalEdgeStyle;rounded=0;orthogonalLoop=1;jettySize=auto;html=1;" parent="1" source="kuCT0JWgRBGRcobsYB0P-1" target="kuCT0JWgRBGRcobsYB0P-9" edge="1">
          <mxGeometry relative="1" as="geometry">
            <Array as="points">
              <mxPoint x="200" y="190" />
            </Array>
          </mxGeometry>
        </mxCell>
        <mxCell id="KTSWGA55j3tpUjNlQqNr-6" value="&lt;span style=&quot;font-weight: 400;&quot;&gt;contato_com_site&lt;/span&gt;" style="swimlane;fontStyle=1;align=center;verticalAlign=top;childLayout=stackLayout;horizontal=1;startSize=26;horizontalStack=0;resizeParent=1;resizeParentMax=0;resizeLast=0;collapsible=1;marginBottom=0;whiteSpace=wrap;html=1;" parent="1" vertex="1">
          <mxGeometry x="-180" y="400" width="160" height="186" as="geometry" />
        </mxCell>
        <mxCell id="KTSWGA55j3tpUjNlQqNr-7" value="# nome: string" style="text;strokeColor=none;fillColor=none;align=left;verticalAlign=top;spacingLeft=4;spacingRight=4;overflow=hidden;rotatable=0;points=[[0,0.5],[1,0.5]];portConstraint=eastwest;whiteSpace=wrap;html=1;" parent="KTSWGA55j3tpUjNlQqNr-6" vertex="1">
          <mxGeometry y="26" width="160" height="26" as="geometry" />
        </mxCell>
        <mxCell id="ylbElyYXsv-rQZZ2zQGT-1" value="# mensagem: text" style="text;html=1;align=left;verticalAlign=middle;whiteSpace=wrap;rounded=0;" parent="KTSWGA55j3tpUjNlQqNr-6" vertex="1">
          <mxGeometry y="52" width="160" height="30" as="geometry" />
        </mxCell>
        <mxCell id="ylbElyYXsv-rQZZ2zQGT-2" value="# email: string" style="text;html=1;align=left;verticalAlign=middle;whiteSpace=wrap;rounded=0;" parent="KTSWGA55j3tpUjNlQqNr-6" vertex="1">
          <mxGeometry y="82" width="160" height="30" as="geometry" />
        </mxCell>
        <mxCell id="KTSWGA55j3tpUjNlQqNr-8" value="" style="line;strokeWidth=1;fillColor=none;align=left;verticalAlign=middle;spacingTop=-1;spacingLeft=3;spacingRight=3;rotatable=0;labelPosition=right;points=[];portConstraint=eastwest;strokeColor=inherit;" parent="KTSWGA55j3tpUjNlQqNr-6" vertex="1">
          <mxGeometry y="112" width="160" height="48" as="geometry" />
        </mxCell>
        <mxCell id="KTSWGA55j3tpUjNlQqNr-9" value="-Enviar_mensagem():&lt;span style=&quot;text-align: center;&quot;&gt;&amp;nbsp;void&lt;/span&gt;" style="text;strokeColor=none;fillColor=none;align=left;verticalAlign=top;spacingLeft=4;spacingRight=4;overflow=hidden;rotatable=0;points=[[0,0.5],[1,0.5]];portConstraint=eastwest;whiteSpace=wrap;html=1;" parent="KTSWGA55j3tpUjNlQqNr-6" vertex="1">
          <mxGeometry y="160" width="160" height="26" as="geometry" />
        </mxCell>
        <mxCell id="f6tH5VBtJ50COLE8GkYW-1" style="edgeStyle=orthogonalEdgeStyle;rounded=0;orthogonalLoop=1;jettySize=auto;html=1;" parent="1" source="kuCT0JWgRBGRcobsYB0P-3" target="KTSWGA55j3tpUjNlQqNr-6" edge="1">
          <mxGeometry relative="1" as="geometry" />
        </mxCell>
        <mxCell id="WdV4Z3mDpusipRj5li7K-1" value="&lt;font style=&quot;vertical-align: inherit;&quot;&gt;&lt;font style=&quot;vertical-align: inherit;&quot;&gt;Painel_psicologo&lt;/font&gt;&lt;/font&gt;" style="swimlane;fontStyle=0;childLayout=stackLayout;horizontal=1;startSize=30;horizontalStack=0;resizeParent=1;resizeParentMax=0;resizeLast=0;collapsible=1;marginBottom=0;whiteSpace=wrap;html=1;" parent="1" vertex="1">
          <mxGeometry x="800" y="400" width="170" height="120" as="geometry">
            <mxRectangle x="810" y="400" width="130" height="30" as="alternateBounds" />
          </mxGeometry>
        </mxCell>
        <mxCell id="WdV4Z3mDpusipRj5li7K-2" value="&lt;font style=&quot;vertical-align: inherit;&quot;&gt;&lt;font style=&quot;vertical-align: inherit;&quot;&gt;# nomepaciente: string&lt;/font&gt;&lt;/font&gt;" style="text;strokeColor=none;fillColor=none;align=left;verticalAlign=middle;spacingLeft=4;spacingRight=4;overflow=hidden;points=[[0,0.5],[1,0.5]];portConstraint=eastwest;rotatable=0;whiteSpace=wrap;html=1;" parent="WdV4Z3mDpusipRj5li7K-1" vertex="1">
          <mxGeometry y="30" width="170" height="30" as="geometry" />
        </mxCell>
        <mxCell id="WdV4Z3mDpusipRj5li7K-3" value="&lt;font style=&quot;vertical-align: inherit;&quot;&gt;&lt;font style=&quot;vertical-align: inherit;&quot;&gt;# pagamento: string&lt;/font&gt;&lt;/font&gt;" style="text;strokeColor=none;fillColor=none;align=left;verticalAlign=middle;spacingLeft=4;spacingRight=4;overflow=hidden;points=[[0,0.5],[1,0.5]];portConstraint=eastwest;rotatable=0;whiteSpace=wrap;html=1;" parent="WdV4Z3mDpusipRj5li7K-1" vertex="1">
          <mxGeometry y="60" width="170" height="30" as="geometry" />
        </mxCell>
        <mxCell id="WdV4Z3mDpusipRj5li7K-4" value="&lt;font style=&quot;vertical-align: inherit;&quot;&gt;&lt;font style=&quot;vertical-align: inherit;&quot;&gt;# consulta: string&lt;/font&gt;&lt;/font&gt;" style="text;strokeColor=none;fillColor=none;align=left;verticalAlign=middle;spacingLeft=4;spacingRight=4;overflow=hidden;points=[[0,0.5],[1,0.5]];portConstraint=eastwest;rotatable=0;whiteSpace=wrap;html=1;" parent="WdV4Z3mDpusipRj5li7K-1" vertex="1">
          <mxGeometry y="90" width="170" height="30" as="geometry" />
        </mxCell>
        <mxCell id="WdV4Z3mDpusipRj5li7K-6" value="" style="rounded=0;whiteSpace=wrap;html=1;" parent="1" vertex="1">
          <mxGeometry x="800" y="520" width="170" height="50" as="geometry" />
        </mxCell>
        <mxCell id="WdV4Z3mDpusipRj5li7K-7" value="&lt;font style=&quot;vertical-align: inherit;&quot;&gt;&lt;font style=&quot;vertical-align: inherit;&quot;&gt;&lt;font style=&quot;vertical-align: inherit;&quot;&gt;&lt;font style=&quot;vertical-align: inherit;&quot;&gt;- estado_do_pagamento():&lt;/font&gt;&lt;/font&gt;&lt;/font&gt;&lt;/font&gt;&amp;nbsp;void" style="text;html=1;align=center;verticalAlign=middle;whiteSpace=wrap;rounded=0;" parent="1" vertex="1">
          <mxGeometry x="800" y="515" width="175" height="30" as="geometry" />
        </mxCell>
        <mxCell id="WdV4Z3mDpusipRj5li7K-8" value="&lt;font style=&quot;vertical-align: inherit;&quot;&gt;&lt;font style=&quot;vertical-align: inherit;&quot;&gt;&lt;font style=&quot;vertical-align: inherit;&quot;&gt;&lt;font style=&quot;vertical-align: inherit;&quot;&gt;&lt;font style=&quot;vertical-align: inherit;&quot;&gt;&lt;font style=&quot;vertical-align: inherit;&quot;&gt;- aceitarconsulta():&lt;/font&gt;&lt;/font&gt;&lt;/font&gt;&lt;/font&gt;&lt;/font&gt;&lt;/font&gt;&amp;nbsp;void" style="text;html=1;align=center;verticalAlign=middle;whiteSpace=wrap;rounded=0;" parent="1" vertex="1">
          <mxGeometry x="800" y="537.5" width="135.5" height="25" as="geometry" />
        </mxCell>
        <mxCell id="WdV4Z3mDpusipRj5li7K-11" style="edgeStyle=orthogonalEdgeStyle;rounded=0;orthogonalLoop=1;jettySize=auto;html=1;entryX=0.559;entryY=-0.006;entryDx=0;entryDy=0;entryPerimeter=0;" parent="1" source="kuCT0JWgRBGRcobsYB0P-22" target="WdV4Z3mDpusipRj5li7K-1" edge="1">
          <mxGeometry relative="1" as="geometry" />
        </mxCell>
        <mxCell id="zIu3LnJmdOH835NPaIIr-1" value="" style="rounded=0;whiteSpace=wrap;html=1;" vertex="1" parent="1">
          <mxGeometry x="349" y="310" width="151" height="70" as="geometry" />
        </mxCell>
        <mxCell id="zIu3LnJmdOH835NPaIIr-2" value="- singIn(): void" style="text;html=1;align=center;verticalAlign=middle;whiteSpace=wrap;rounded=0;" vertex="1" parent="1">
          <mxGeometry x="349" y="310" width="89.5" height="30" as="geometry" />
        </mxCell>
        <mxCell id="zIu3LnJmdOH835NPaIIr-3" value="- singUp(): void" style="text;html=1;align=center;verticalAlign=middle;whiteSpace=wrap;rounded=0;" vertex="1" parent="1">
          <mxGeometry x="349.5" y="340" width="90" height="30" as="geometry" />
        </mxCell>
        <mxCell id="zIu3LnJmdOH835NPaIIr-4" value="AutenticaÃ§Ã£o" style="swimlane;fontStyle=0;childLayout=stackLayout;horizontal=1;startSize=30;horizontalStack=0;resizeParent=1;resizeParentMax=0;resizeLast=0;collapsible=1;marginBottom=0;whiteSpace=wrap;html=1;" vertex="1" parent="1">
          <mxGeometry x="349.5" y="451" width="151" height="90" as="geometry" />
        </mxCell>
        <mxCell id="zIu3LnJmdOH835NPaIIr-5" value="# senha: String" style="text;strokeColor=none;fillColor=none;align=left;verticalAlign=middle;spacingLeft=4;spacingRight=4;overflow=hidden;points=[[0,0.5],[1,0.5]];portConstraint=eastwest;rotatable=0;whiteSpace=wrap;html=1;" vertex="1" parent="zIu3LnJmdOH835NPaIIr-4">
          <mxGeometry y="30" width="151" height="30" as="geometry" />
        </mxCell>
        <mxCell id="zIu3LnJmdOH835NPaIIr-6" value="# token: char" style="text;strokeColor=none;fillColor=none;align=left;verticalAlign=middle;spacingLeft=4;spacingRight=4;overflow=hidden;points=[[0,0.5],[1,0.5]];portConstraint=eastwest;rotatable=0;whiteSpace=wrap;html=1;" vertex="1" parent="zIu3LnJmdOH835NPaIIr-4">
          <mxGeometry y="60" width="151" height="30" as="geometry" />
        </mxCell>
        <mxCell id="zIu3LnJmdOH835NPaIIr-8" value="" style="rounded=0;whiteSpace=wrap;html=1;" vertex="1" parent="1">
          <mxGeometry x="349.5" y="542" width="151" height="97" as="geometry" />
        </mxCell>
        <mxCell id="zIu3LnJmdOH835NPaIIr-9" value="- cripSenha(): void" style="text;html=1;align=center;verticalAlign=middle;whiteSpace=wrap;rounded=0;" vertex="1" parent="1">
          <mxGeometry x="354.5" y="542" width="105" height="30" as="geometry" />
        </mxCell>
        <mxCell id="zIu3LnJmdOH835NPaIIr-10" value="- getToken(): void" style="text;html=1;align=center;verticalAlign=middle;whiteSpace=wrap;rounded=0;" vertex="1" parent="1">
          <mxGeometry x="354.5" y="561.5" width="95" height="30" as="geometry" />
        </mxCell>
        <mxCell id="zIu3LnJmdOH835NPaIIr-11" value="- salvarUser(): void" style="text;html=1;align=center;verticalAlign=middle;whiteSpace=wrap;rounded=0;" vertex="1" parent="1">
          <mxGeometry x="354.5" y="579" width="105" height="30" as="geometry" />
        </mxCell>
        <mxCell id="zIu3LnJmdOH835NPaIIr-12" value="- getUser(): void" style="text;html=1;align=center;verticalAlign=middle;whiteSpace=wrap;rounded=0;" vertex="1" parent="1">
          <mxGeometry x="354.5" y="599" width="90" height="30" as="geometry" />
        </mxCell>
        <mxCell id="zIu3LnJmdOH835NPaIIr-13" value="" style="endArrow=classic;html=1;rounded=0;" edge="1" parent="1">
          <mxGeometry width="50" height="50" relative="1" as="geometry">
            <mxPoint x="426" y="380" as="sourcePoint" />
            <mxPoint x="426" y="450" as="targetPoint" />
          </mxGeometry>
        </mxCell>
      </root>
    </mxGraphModel>
  </diagram>
</mxfile>
